<mxfile host="app.diagrams.net" modified="2023-11-16T17:58:20.623Z" agent="Mozilla/5.0 (Windows NT 10.0; Win64; x64) AppleWebKit/537.36 (KHTML, like Gecko) Chrome/119.0.0.0 Safari/537.36" etag="BXgjwq8WFVagF8HEDZjl" version="22.1.2" type="device">
  <diagram name="第 1 页" id="qPfE1afspQzEengcxuww">
    <mxGraphModel dx="1562" dy="853" grid="1" gridSize="10" guides="1" tooltips="1" connect="1" arrows="1" fold="1" page="1" pageScale="1" pageWidth="1654" pageHeight="2336" math="0" shadow="0">
      <root>
        <mxCell id="0" />
        <mxCell id="1" parent="0" />
        <mxCell id="8DQjG6_9rKmDQqKz9Qs8-2" value="" style="childLayout=tableLayout;recursiveResize=0;shadow=0;fillColor=none;" parent="1" vertex="1">
          <mxGeometry x="160" y="78" width="610" height="47" as="geometry" />
        </mxCell>
        <mxCell id="8DQjG6_9rKmDQqKz9Qs8-3" value="" style="shape=tableRow;horizontal=0;startSize=0;swimlaneHead=0;swimlaneBody=0;top=0;left=0;bottom=0;right=0;dropTarget=0;collapsible=0;recursiveResize=0;expand=0;fontStyle=0;fillColor=none;strokeColor=inherit;" parent="8DQjG6_9rKmDQqKz9Qs8-2" vertex="1">
          <mxGeometry width="610" height="47" as="geometry" />
        </mxCell>
        <mxCell id="8DQjG6_9rKmDQqKz9Qs8-4" value="C_Name" style="connectable=0;recursiveResize=0;strokeColor=inherit;fillColor=none;align=center;whiteSpace=wrap;html=1;" parent="8DQjG6_9rKmDQqKz9Qs8-3" vertex="1">
          <mxGeometry width="87" height="47" as="geometry">
            <mxRectangle width="87" height="47" as="alternateBounds" />
          </mxGeometry>
        </mxCell>
        <mxCell id="8DQjG6_9rKmDQqKz9Qs8-5" value="Gender" style="connectable=0;recursiveResize=0;strokeColor=inherit;fillColor=none;align=center;whiteSpace=wrap;html=1;" parent="8DQjG6_9rKmDQqKz9Qs8-3" vertex="1">
          <mxGeometry x="87" width="88" height="47" as="geometry">
            <mxRectangle width="88" height="47" as="alternateBounds" />
          </mxGeometry>
        </mxCell>
        <mxCell id="8DQjG6_9rKmDQqKz9Qs8-6" value="DOB" style="connectable=0;recursiveResize=0;strokeColor=inherit;fillColor=none;align=center;whiteSpace=wrap;html=1;" parent="8DQjG6_9rKmDQqKz9Qs8-3" vertex="1">
          <mxGeometry x="175" width="87" height="47" as="geometry">
            <mxRectangle width="87" height="47" as="alternateBounds" />
          </mxGeometry>
        </mxCell>
        <mxCell id="8DQjG6_9rKmDQqKz9Qs8-32" value="&lt;u&gt;SSN&lt;/u&gt;" style="connectable=0;recursiveResize=0;strokeColor=inherit;fillColor=none;align=center;whiteSpace=wrap;html=1;" parent="8DQjG6_9rKmDQqKz9Qs8-3" vertex="1">
          <mxGeometry x="262" width="86" height="47" as="geometry">
            <mxRectangle width="86" height="47" as="alternateBounds" />
          </mxGeometry>
        </mxCell>
        <mxCell id="8DQjG6_9rKmDQqKz9Qs8-33" value="C_address" style="connectable=0;recursiveResize=0;strokeColor=inherit;fillColor=none;align=center;whiteSpace=wrap;html=1;" parent="8DQjG6_9rKmDQqKz9Qs8-3" vertex="1">
          <mxGeometry x="348" width="87" height="47" as="geometry">
            <mxRectangle width="87" height="47" as="alternateBounds" />
          </mxGeometry>
        </mxCell>
        <mxCell id="8DQjG6_9rKmDQqKz9Qs8-34" value="Language" style="connectable=0;recursiveResize=0;strokeColor=inherit;fillColor=none;align=center;whiteSpace=wrap;html=1;" parent="8DQjG6_9rKmDQqKz9Qs8-3" vertex="1">
          <mxGeometry x="435" width="88" height="47" as="geometry">
            <mxRectangle width="88" height="47" as="alternateBounds" />
          </mxGeometry>
        </mxCell>
        <mxCell id="8DQjG6_9rKmDQqKz9Qs8-330" value="Account_name" style="connectable=0;recursiveResize=0;strokeColor=inherit;fillColor=none;align=center;whiteSpace=wrap;html=1;" parent="8DQjG6_9rKmDQqKz9Qs8-3" vertex="1">
          <mxGeometry x="523" width="87" height="47" as="geometry">
            <mxRectangle width="87" height="47" as="alternateBounds" />
          </mxGeometry>
        </mxCell>
        <mxCell id="8DQjG6_9rKmDQqKz9Qs8-38" value="Customer" style="text;html=1;align=center;verticalAlign=middle;resizable=0;points=[];autosize=1;strokeColor=none;fillColor=none;" parent="1" vertex="1">
          <mxGeometry x="160" y="48" width="80" height="30" as="geometry" />
        </mxCell>
        <mxCell id="8DQjG6_9rKmDQqKz9Qs8-56" value="" style="childLayout=tableLayout;recursiveResize=0;shadow=0;fillColor=none;" parent="1" vertex="1">
          <mxGeometry x="160" y="160" width="370" height="50" as="geometry" />
        </mxCell>
        <mxCell id="8DQjG6_9rKmDQqKz9Qs8-57" value="" style="shape=tableRow;horizontal=0;startSize=0;swimlaneHead=0;swimlaneBody=0;top=0;left=0;bottom=0;right=0;dropTarget=0;collapsible=0;recursiveResize=0;expand=0;fontStyle=0;fillColor=none;strokeColor=inherit;" parent="8DQjG6_9rKmDQqKz9Qs8-56" vertex="1">
          <mxGeometry width="370" height="50" as="geometry" />
        </mxCell>
        <mxCell id="8DQjG6_9rKmDQqKz9Qs8-58" value="Account_name" style="connectable=0;recursiveResize=0;strokeColor=inherit;fillColor=none;align=center;whiteSpace=wrap;html=1;fontStyle=4" parent="8DQjG6_9rKmDQqKz9Qs8-57" vertex="1">
          <mxGeometry width="93" height="50" as="geometry">
            <mxRectangle width="93" height="50" as="alternateBounds" />
          </mxGeometry>
        </mxCell>
        <mxCell id="8DQjG6_9rKmDQqKz9Qs8-59" value="A_address" style="connectable=0;recursiveResize=0;strokeColor=inherit;fillColor=none;align=center;whiteSpace=wrap;html=1;" parent="8DQjG6_9rKmDQqKz9Qs8-57" vertex="1">
          <mxGeometry x="93" width="93" height="50" as="geometry">
            <mxRectangle width="93" height="50" as="alternateBounds" />
          </mxGeometry>
        </mxCell>
        <mxCell id="8DQjG6_9rKmDQqKz9Qs8-60" value="Companycode" style="connectable=0;recursiveResize=0;strokeColor=inherit;fillColor=none;align=center;whiteSpace=wrap;html=1;" parent="8DQjG6_9rKmDQqKz9Qs8-57" vertex="1">
          <mxGeometry x="186" width="92" height="50" as="geometry">
            <mxRectangle width="92" height="50" as="alternateBounds" />
          </mxGeometry>
        </mxCell>
        <mxCell id="8DQjG6_9rKmDQqKz9Qs8-69" value="num_member" style="connectable=0;recursiveResize=0;strokeColor=inherit;fillColor=none;align=center;whiteSpace=wrap;html=1;" parent="8DQjG6_9rKmDQqKz9Qs8-57" vertex="1">
          <mxGeometry x="278" width="92" height="50" as="geometry">
            <mxRectangle width="92" height="50" as="alternateBounds" />
          </mxGeometry>
        </mxCell>
        <mxCell id="8DQjG6_9rKmDQqKz9Qs8-74" value="Account" style="text;html=1;align=center;verticalAlign=middle;resizable=0;points=[];autosize=1;strokeColor=none;fillColor=none;" parent="1" vertex="1">
          <mxGeometry x="160" y="130" width="70" height="30" as="geometry" />
        </mxCell>
        <mxCell id="8DQjG6_9rKmDQqKz9Qs8-75" value="" style="childLayout=tableLayout;recursiveResize=0;shadow=0;fillColor=none;" parent="1" vertex="1">
          <mxGeometry x="160" y="240" width="340" height="47" as="geometry" />
        </mxCell>
        <mxCell id="8DQjG6_9rKmDQqKz9Qs8-76" value="" style="shape=tableRow;horizontal=0;startSize=0;swimlaneHead=0;swimlaneBody=0;top=0;left=0;bottom=0;right=0;dropTarget=0;collapsible=0;recursiveResize=0;expand=0;fontStyle=0;fillColor=none;strokeColor=inherit;" parent="8DQjG6_9rKmDQqKz9Qs8-75" vertex="1">
          <mxGeometry width="340" height="47" as="geometry" />
        </mxCell>
        <mxCell id="8DQjG6_9rKmDQqKz9Qs8-77" value="Account_name" style="connectable=0;recursiveResize=0;strokeColor=inherit;fillColor=none;align=center;whiteSpace=wrap;html=1;" parent="8DQjG6_9rKmDQqKz9Qs8-76" vertex="1">
          <mxGeometry width="114" height="47" as="geometry">
            <mxRectangle width="114" height="47" as="alternateBounds" />
          </mxGeometry>
        </mxCell>
        <mxCell id="8DQjG6_9rKmDQqKz9Qs8-78" value="SSN" style="connectable=0;recursiveResize=0;strokeColor=inherit;fillColor=none;align=center;whiteSpace=wrap;html=1;" parent="8DQjG6_9rKmDQqKz9Qs8-76" vertex="1">
          <mxGeometry x="114" width="112" height="47" as="geometry">
            <mxRectangle width="112" height="47" as="alternateBounds" />
          </mxGeometry>
        </mxCell>
        <mxCell id="8DQjG6_9rKmDQqKz9Qs8-94" value="Start_date" style="connectable=0;recursiveResize=0;strokeColor=inherit;fillColor=none;align=center;whiteSpace=wrap;html=1;" parent="8DQjG6_9rKmDQqKz9Qs8-76" vertex="1">
          <mxGeometry x="226" width="114" height="47" as="geometry">
            <mxRectangle width="114" height="47" as="alternateBounds" />
          </mxGeometry>
        </mxCell>
        <mxCell id="8DQjG6_9rKmDQqKz9Qs8-95" value="AccountMember" style="text;html=1;align=center;verticalAlign=middle;resizable=0;points=[];autosize=1;strokeColor=none;fillColor=none;" parent="1" vertex="1">
          <mxGeometry x="160" y="210" width="110" height="30" as="geometry" />
        </mxCell>
        <mxCell id="8DQjG6_9rKmDQqKz9Qs8-96" value="" style="childLayout=tableLayout;recursiveResize=0;shadow=0;fillColor=none;" parent="1" vertex="1">
          <mxGeometry x="160" y="320" width="425" height="47" as="geometry" />
        </mxCell>
        <mxCell id="8DQjG6_9rKmDQqKz9Qs8-97" value="" style="shape=tableRow;horizontal=0;startSize=0;swimlaneHead=0;swimlaneBody=0;top=0;left=0;bottom=0;right=0;dropTarget=0;collapsible=0;recursiveResize=0;expand=0;fontStyle=0;fillColor=none;strokeColor=inherit;" parent="8DQjG6_9rKmDQqKz9Qs8-96" vertex="1">
          <mxGeometry width="425" height="47" as="geometry" />
        </mxCell>
        <mxCell id="8DQjG6_9rKmDQqKz9Qs8-98" value="&lt;u&gt;Claim#&lt;/u&gt;" style="connectable=0;recursiveResize=0;strokeColor=inherit;fillColor=none;align=center;whiteSpace=wrap;html=1;" parent="8DQjG6_9rKmDQqKz9Qs8-97" vertex="1">
          <mxGeometry width="85" height="47" as="geometry">
            <mxRectangle width="85" height="47" as="alternateBounds" />
          </mxGeometry>
        </mxCell>
        <mxCell id="8DQjG6_9rKmDQqKz9Qs8-99" value="Claim_date" style="connectable=0;recursiveResize=0;strokeColor=inherit;fillColor=none;align=center;whiteSpace=wrap;html=1;" parent="8DQjG6_9rKmDQqKz9Qs8-97" vertex="1">
          <mxGeometry x="85" width="85" height="47" as="geometry">
            <mxRectangle width="85" height="47" as="alternateBounds" />
          </mxGeometry>
        </mxCell>
        <mxCell id="8DQjG6_9rKmDQqKz9Qs8-100" value="Settle_date" style="connectable=0;recursiveResize=0;strokeColor=inherit;fillColor=none;align=center;whiteSpace=wrap;html=1;" parent="8DQjG6_9rKmDQqKz9Qs8-97" vertex="1">
          <mxGeometry x="170" width="85" height="47" as="geometry">
            <mxRectangle width="85" height="47" as="alternateBounds" />
          </mxGeometry>
        </mxCell>
        <mxCell id="8DQjG6_9rKmDQqKz9Qs8-112" value="SSN" style="connectable=0;recursiveResize=0;strokeColor=inherit;fillColor=none;align=center;whiteSpace=wrap;html=1;" parent="8DQjG6_9rKmDQqKz9Qs8-97" vertex="1">
          <mxGeometry x="255" width="85" height="47" as="geometry">
            <mxRectangle width="85" height="47" as="alternateBounds" />
          </mxGeometry>
        </mxCell>
        <mxCell id="8DQjG6_9rKmDQqKz9Qs8-355" value="Claim_detail" style="connectable=0;recursiveResize=0;strokeColor=inherit;fillColor=none;align=center;whiteSpace=wrap;html=1;" parent="8DQjG6_9rKmDQqKz9Qs8-97" vertex="1">
          <mxGeometry x="340" width="85" height="47" as="geometry">
            <mxRectangle width="85" height="47" as="alternateBounds" />
          </mxGeometry>
        </mxCell>
        <mxCell id="8DQjG6_9rKmDQqKz9Qs8-113" value="Claims" style="text;html=1;align=center;verticalAlign=middle;resizable=0;points=[];autosize=1;strokeColor=none;fillColor=none;" parent="1" vertex="1">
          <mxGeometry x="160" y="290" width="60" height="30" as="geometry" />
        </mxCell>
        <mxCell id="8DQjG6_9rKmDQqKz9Qs8-114" value="" style="childLayout=tableLayout;recursiveResize=0;shadow=0;fillColor=none;" parent="1" vertex="1">
          <mxGeometry x="160" y="400" width="352" height="47" as="geometry" />
        </mxCell>
        <mxCell id="8DQjG6_9rKmDQqKz9Qs8-115" value="" style="shape=tableRow;horizontal=0;startSize=0;swimlaneHead=0;swimlaneBody=0;top=0;left=0;bottom=0;right=0;dropTarget=0;collapsible=0;recursiveResize=0;expand=0;fontStyle=0;fillColor=none;strokeColor=inherit;" parent="8DQjG6_9rKmDQqKz9Qs8-114" vertex="1">
          <mxGeometry width="352" height="47" as="geometry" />
        </mxCell>
        <mxCell id="8DQjG6_9rKmDQqKz9Qs8-116" value="SSN" style="connectable=0;recursiveResize=0;strokeColor=inherit;fillColor=none;align=center;whiteSpace=wrap;html=1;" parent="8DQjG6_9rKmDQqKz9Qs8-115" vertex="1">
          <mxGeometry width="87" height="47" as="geometry">
            <mxRectangle width="87" height="47" as="alternateBounds" />
          </mxGeometry>
        </mxCell>
        <mxCell id="8DQjG6_9rKmDQqKz9Qs8-117" value="&lt;u&gt;Invoice#&lt;/u&gt;" style="connectable=0;recursiveResize=0;strokeColor=inherit;fillColor=none;align=center;whiteSpace=wrap;html=1;" parent="8DQjG6_9rKmDQqKz9Qs8-115" vertex="1">
          <mxGeometry x="87" width="91" height="47" as="geometry">
            <mxRectangle width="91" height="47" as="alternateBounds" />
          </mxGeometry>
        </mxCell>
        <mxCell id="8DQjG6_9rKmDQqKz9Qs8-118" value="Paid_date" style="connectable=0;recursiveResize=0;strokeColor=inherit;fillColor=none;align=center;whiteSpace=wrap;html=1;" parent="8DQjG6_9rKmDQqKz9Qs8-115" vertex="1">
          <mxGeometry x="178" width="87" height="47" as="geometry">
            <mxRectangle width="87" height="47" as="alternateBounds" />
          </mxGeometry>
        </mxCell>
        <mxCell id="8DQjG6_9rKmDQqKz9Qs8-127" value="Invoice_detail" style="connectable=0;recursiveResize=0;strokeColor=inherit;fillColor=none;align=center;whiteSpace=wrap;html=1;" parent="8DQjG6_9rKmDQqKz9Qs8-115" vertex="1">
          <mxGeometry x="265" width="87" height="47" as="geometry">
            <mxRectangle width="87" height="47" as="alternateBounds" />
          </mxGeometry>
        </mxCell>
        <mxCell id="8DQjG6_9rKmDQqKz9Qs8-130" value="Invoice" style="text;html=1;align=center;verticalAlign=middle;resizable=0;points=[];autosize=1;strokeColor=none;fillColor=none;" parent="1" vertex="1">
          <mxGeometry x="160" y="370" width="60" height="30" as="geometry" />
        </mxCell>
        <mxCell id="8DQjG6_9rKmDQqKz9Qs8-131" value="" style="childLayout=tableLayout;recursiveResize=0;shadow=0;fillColor=none;" parent="1" vertex="1">
          <mxGeometry x="160" y="480" width="220" height="47" as="geometry" />
        </mxCell>
        <mxCell id="8DQjG6_9rKmDQqKz9Qs8-132" value="" style="shape=tableRow;horizontal=0;startSize=0;swimlaneHead=0;swimlaneBody=0;top=0;left=0;bottom=0;right=0;dropTarget=0;collapsible=0;recursiveResize=0;expand=0;fontStyle=0;fillColor=none;strokeColor=inherit;" parent="8DQjG6_9rKmDQqKz9Qs8-131" vertex="1">
          <mxGeometry width="220" height="47" as="geometry" />
        </mxCell>
        <mxCell id="8DQjG6_9rKmDQqKz9Qs8-133" value="&lt;u&gt;BAccount_name&lt;/u&gt;" style="connectable=0;recursiveResize=0;strokeColor=inherit;fillColor=none;align=center;whiteSpace=wrap;html=1;" parent="8DQjG6_9rKmDQqKz9Qs8-132" vertex="1">
          <mxGeometry width="110" height="47" as="geometry">
            <mxRectangle width="110" height="47" as="alternateBounds" />
          </mxGeometry>
        </mxCell>
        <mxCell id="8DQjG6_9rKmDQqKz9Qs8-134" value="B_address" style="connectable=0;recursiveResize=0;strokeColor=inherit;fillColor=none;align=center;whiteSpace=wrap;html=1;" parent="8DQjG6_9rKmDQqKz9Qs8-132" vertex="1">
          <mxGeometry x="110" width="110" height="47" as="geometry">
            <mxRectangle width="110" height="47" as="alternateBounds" />
          </mxGeometry>
        </mxCell>
        <mxCell id="8DQjG6_9rKmDQqKz9Qs8-146" value="BAccount Name" style="text;html=1;align=center;verticalAlign=middle;resizable=0;points=[];autosize=1;strokeColor=none;fillColor=none;" parent="1" vertex="1">
          <mxGeometry x="160" y="450" width="110" height="30" as="geometry" />
        </mxCell>
        <mxCell id="8DQjG6_9rKmDQqKz9Qs8-147" value="" style="childLayout=tableLayout;recursiveResize=0;shadow=0;fillColor=none;" parent="1" vertex="1">
          <mxGeometry x="160" y="560" width="318" height="47" as="geometry" />
        </mxCell>
        <mxCell id="8DQjG6_9rKmDQqKz9Qs8-148" value="" style="shape=tableRow;horizontal=0;startSize=0;swimlaneHead=0;swimlaneBody=0;top=0;left=0;bottom=0;right=0;dropTarget=0;collapsible=0;recursiveResize=0;expand=0;fontStyle=0;fillColor=none;strokeColor=inherit;" parent="8DQjG6_9rKmDQqKz9Qs8-147" vertex="1">
          <mxGeometry width="318" height="47" as="geometry" />
        </mxCell>
        <mxCell id="8DQjG6_9rKmDQqKz9Qs8-150" value="Account_name" style="connectable=0;recursiveResize=0;strokeColor=inherit;fillColor=none;align=center;whiteSpace=wrap;html=1;" parent="8DQjG6_9rKmDQqKz9Qs8-148" vertex="1">
          <mxGeometry width="106" height="47" as="geometry">
            <mxRectangle width="106" height="47" as="alternateBounds" />
          </mxGeometry>
        </mxCell>
        <mxCell id="8DQjG6_9rKmDQqKz9Qs8-151" value="BAccount_name" style="connectable=0;recursiveResize=0;strokeColor=inherit;fillColor=none;align=center;whiteSpace=wrap;html=1;" parent="8DQjG6_9rKmDQqKz9Qs8-148" vertex="1">
          <mxGeometry x="106" width="106" height="47" as="geometry">
            <mxRectangle width="106" height="47" as="alternateBounds" />
          </mxGeometry>
        </mxCell>
        <mxCell id="8DQjG6_9rKmDQqKz9Qs8-160" value="Relationship_type" style="connectable=0;recursiveResize=0;strokeColor=inherit;fillColor=none;align=center;whiteSpace=wrap;html=1;" parent="8DQjG6_9rKmDQqKz9Qs8-148" vertex="1">
          <mxGeometry x="212" width="106" height="47" as="geometry">
            <mxRectangle width="106" height="47" as="alternateBounds" />
          </mxGeometry>
        </mxCell>
        <mxCell id="8DQjG6_9rKmDQqKz9Qs8-162" value="Account_BillingAccount" style="text;html=1;align=center;verticalAlign=middle;resizable=0;points=[];autosize=1;strokeColor=none;fillColor=none;" parent="1" vertex="1">
          <mxGeometry x="160" y="530" width="150" height="30" as="geometry" />
        </mxCell>
        <mxCell id="8DQjG6_9rKmDQqKz9Qs8-163" value="" style="childLayout=tableLayout;recursiveResize=0;shadow=0;fillColor=none;" parent="1" vertex="1">
          <mxGeometry x="160" y="640" width="449" height="47" as="geometry" />
        </mxCell>
        <mxCell id="8DQjG6_9rKmDQqKz9Qs8-164" value="" style="shape=tableRow;horizontal=0;startSize=0;swimlaneHead=0;swimlaneBody=0;top=0;left=0;bottom=0;right=0;dropTarget=0;collapsible=0;recursiveResize=0;expand=0;fontStyle=0;fillColor=none;strokeColor=inherit;" parent="8DQjG6_9rKmDQqKz9Qs8-163" vertex="1">
          <mxGeometry width="449" height="47" as="geometry" />
        </mxCell>
        <mxCell id="8DQjG6_9rKmDQqKz9Qs8-166" value="&lt;u&gt;Admin_name&lt;/u&gt;" style="connectable=0;recursiveResize=0;strokeColor=inherit;fillColor=none;align=center;whiteSpace=wrap;html=1;" parent="8DQjG6_9rKmDQqKz9Qs8-164" vertex="1">
          <mxGeometry width="112" height="47" as="geometry">
            <mxRectangle width="112" height="47" as="alternateBounds" />
          </mxGeometry>
        </mxCell>
        <mxCell id="8DQjG6_9rKmDQqKz9Qs8-167" value="Admin_address" style="connectable=0;recursiveResize=0;strokeColor=inherit;fillColor=none;align=center;whiteSpace=wrap;html=1;" parent="8DQjG6_9rKmDQqKz9Qs8-164" vertex="1">
          <mxGeometry x="112" width="113" height="47" as="geometry">
            <mxRectangle width="113" height="47" as="alternateBounds" />
          </mxGeometry>
        </mxCell>
        <mxCell id="8DQjG6_9rKmDQqKz9Qs8-176" value="Admin_phone" style="connectable=0;recursiveResize=0;strokeColor=inherit;fillColor=none;align=center;whiteSpace=wrap;html=1;" parent="8DQjG6_9rKmDQqKz9Qs8-164" vertex="1">
          <mxGeometry x="225" width="112" height="47" as="geometry">
            <mxRectangle width="112" height="47" as="alternateBounds" />
          </mxGeometry>
        </mxCell>
        <mxCell id="8DQjG6_9rKmDQqKz9Qs8-178" value="Admin_organization" style="connectable=0;recursiveResize=0;strokeColor=inherit;fillColor=none;align=center;whiteSpace=wrap;html=1;" parent="8DQjG6_9rKmDQqKz9Qs8-164" vertex="1">
          <mxGeometry x="337" width="112" height="47" as="geometry">
            <mxRectangle width="112" height="47" as="alternateBounds" />
          </mxGeometry>
        </mxCell>
        <mxCell id="8DQjG6_9rKmDQqKz9Qs8-179" value="Account_Admin" style="text;html=1;align=center;verticalAlign=middle;resizable=0;points=[];autosize=1;strokeColor=none;fillColor=none;" parent="1" vertex="1">
          <mxGeometry x="160" y="610" width="110" height="30" as="geometry" />
        </mxCell>
        <mxCell id="8DQjG6_9rKmDQqKz9Qs8-180" value="" style="childLayout=tableLayout;recursiveResize=0;shadow=0;fillColor=none;" parent="1" vertex="1">
          <mxGeometry x="160" y="720" width="280" height="47" as="geometry" />
        </mxCell>
        <mxCell id="8DQjG6_9rKmDQqKz9Qs8-181" value="" style="shape=tableRow;horizontal=0;startSize=0;swimlaneHead=0;swimlaneBody=0;top=0;left=0;bottom=0;right=0;dropTarget=0;collapsible=0;recursiveResize=0;expand=0;fontStyle=0;fillColor=none;strokeColor=inherit;" parent="8DQjG6_9rKmDQqKz9Qs8-180" vertex="1">
          <mxGeometry width="280" height="47" as="geometry" />
        </mxCell>
        <mxCell id="8DQjG6_9rKmDQqKz9Qs8-182" value="Admin_name" style="connectable=0;recursiveResize=0;strokeColor=inherit;fillColor=none;align=center;whiteSpace=wrap;html=1;" parent="8DQjG6_9rKmDQqKz9Qs8-181" vertex="1">
          <mxGeometry width="93" height="47" as="geometry">
            <mxRectangle width="93" height="47" as="alternateBounds" />
          </mxGeometry>
        </mxCell>
        <mxCell id="8DQjG6_9rKmDQqKz9Qs8-183" value="Account_name" style="connectable=0;recursiveResize=0;strokeColor=inherit;fillColor=none;align=center;whiteSpace=wrap;html=1;" parent="8DQjG6_9rKmDQqKz9Qs8-181" vertex="1">
          <mxGeometry x="93" width="94" height="47" as="geometry">
            <mxRectangle width="94" height="47" as="alternateBounds" />
          </mxGeometry>
        </mxCell>
        <mxCell id="8DQjG6_9rKmDQqKz9Qs8-184" value="Admin_type" style="connectable=0;recursiveResize=0;strokeColor=inherit;fillColor=none;align=center;whiteSpace=wrap;html=1;" parent="8DQjG6_9rKmDQqKz9Qs8-181" vertex="1">
          <mxGeometry x="187" width="93" height="47" as="geometry">
            <mxRectangle width="93" height="47" as="alternateBounds" />
          </mxGeometry>
        </mxCell>
        <mxCell id="8DQjG6_9rKmDQqKz9Qs8-196" value="Acct_AcctAdmin" style="text;html=1;align=center;verticalAlign=middle;resizable=0;points=[];autosize=1;strokeColor=none;fillColor=none;" parent="1" vertex="1">
          <mxGeometry x="160" y="690" width="110" height="30" as="geometry" />
        </mxCell>
        <mxCell id="8DQjG6_9rKmDQqKz9Qs8-197" value="" style="childLayout=tableLayout;recursiveResize=0;shadow=0;fillColor=none;" parent="1" vertex="1">
          <mxGeometry x="160" y="800" width="590" height="47" as="geometry" />
        </mxCell>
        <mxCell id="8DQjG6_9rKmDQqKz9Qs8-198" value="" style="shape=tableRow;horizontal=0;startSize=0;swimlaneHead=0;swimlaneBody=0;top=0;left=0;bottom=0;right=0;dropTarget=0;collapsible=0;recursiveResize=0;expand=0;fontStyle=0;fillColor=none;strokeColor=inherit;" parent="8DQjG6_9rKmDQqKz9Qs8-197" vertex="1">
          <mxGeometry width="590" height="47" as="geometry" />
        </mxCell>
        <mxCell id="8DQjG6_9rKmDQqKz9Qs8-199" value="Contract#" style="connectable=0;recursiveResize=0;strokeColor=inherit;fillColor=none;align=center;whiteSpace=wrap;html=1;fontStyle=4" parent="8DQjG6_9rKmDQqKz9Qs8-198" vertex="1">
          <mxGeometry width="98" height="47" as="geometry">
            <mxRectangle width="98" height="47" as="alternateBounds" />
          </mxGeometry>
        </mxCell>
        <mxCell id="8DQjG6_9rKmDQqKz9Qs8-200" value="ActivityStatus" style="connectable=0;recursiveResize=0;strokeColor=inherit;fillColor=none;align=center;whiteSpace=wrap;html=1;" parent="8DQjG6_9rKmDQqKz9Qs8-198" vertex="1">
          <mxGeometry x="98" width="99" height="47" as="geometry">
            <mxRectangle width="99" height="47" as="alternateBounds" />
          </mxGeometry>
        </mxCell>
        <mxCell id="8DQjG6_9rKmDQqKz9Qs8-201" value="BillingMethod" style="connectable=0;recursiveResize=0;strokeColor=inherit;fillColor=none;align=center;whiteSpace=wrap;html=1;" parent="8DQjG6_9rKmDQqKz9Qs8-198" vertex="1">
          <mxGeometry x="197" width="98" height="47" as="geometry">
            <mxRectangle width="98" height="47" as="alternateBounds" />
          </mxGeometry>
        </mxCell>
        <mxCell id="8DQjG6_9rKmDQqKz9Qs8-210" value="Associate_SSN" style="connectable=0;recursiveResize=0;strokeColor=inherit;fillColor=none;align=center;whiteSpace=wrap;html=1;" parent="8DQjG6_9rKmDQqKz9Qs8-198" vertex="1">
          <mxGeometry x="295" width="98" height="47" as="geometry">
            <mxRectangle width="98" height="47" as="alternateBounds" />
          </mxGeometry>
        </mxCell>
        <mxCell id="8DQjG6_9rKmDQqKz9Qs8-211" value="Account_name" style="connectable=0;recursiveResize=0;strokeColor=inherit;fillColor=none;align=center;whiteSpace=wrap;html=1;" parent="8DQjG6_9rKmDQqKz9Qs8-198" vertex="1">
          <mxGeometry x="393" width="99" height="47" as="geometry">
            <mxRectangle width="99" height="47" as="alternateBounds" />
          </mxGeometry>
        </mxCell>
        <mxCell id="8DQjG6_9rKmDQqKz9Qs8-212" value="ProductID" style="connectable=0;recursiveResize=0;strokeColor=inherit;fillColor=none;align=center;whiteSpace=wrap;html=1;" parent="8DQjG6_9rKmDQqKz9Qs8-198" vertex="1">
          <mxGeometry x="492" width="98" height="47" as="geometry">
            <mxRectangle width="98" height="47" as="alternateBounds" />
          </mxGeometry>
        </mxCell>
        <mxCell id="8DQjG6_9rKmDQqKz9Qs8-213" value="ManagerContract" style="text;html=1;align=center;verticalAlign=middle;resizable=0;points=[];autosize=1;strokeColor=none;fillColor=none;" parent="1" vertex="1">
          <mxGeometry x="160" y="770" width="120" height="30" as="geometry" />
        </mxCell>
        <mxCell id="8DQjG6_9rKmDQqKz9Qs8-230" value="" style="childLayout=tableLayout;recursiveResize=0;shadow=0;fillColor=none;movable=1;resizable=1;rotatable=1;deletable=1;editable=1;locked=0;connectable=1;" parent="1" vertex="1">
          <mxGeometry x="160" y="880" width="160" height="47" as="geometry" />
        </mxCell>
        <mxCell id="8DQjG6_9rKmDQqKz9Qs8-231" value="" style="shape=tableRow;horizontal=0;startSize=0;swimlaneHead=0;swimlaneBody=0;top=0;left=0;bottom=0;right=0;dropTarget=0;collapsible=0;recursiveResize=0;expand=0;fontStyle=0;fillColor=none;strokeColor=inherit;" parent="8DQjG6_9rKmDQqKz9Qs8-230" vertex="1">
          <mxGeometry width="160" height="47" as="geometry" />
        </mxCell>
        <mxCell id="8DQjG6_9rKmDQqKz9Qs8-232" value="Contract#" style="connectable=0;recursiveResize=0;strokeColor=inherit;fillColor=none;align=center;whiteSpace=wrap;html=1;" parent="8DQjG6_9rKmDQqKz9Qs8-231" vertex="1">
          <mxGeometry width="80" height="47" as="geometry">
            <mxRectangle width="80" height="47" as="alternateBounds" />
          </mxGeometry>
        </mxCell>
        <mxCell id="8DQjG6_9rKmDQqKz9Qs8-233" value="Benefit_name" style="connectable=0;recursiveResize=0;strokeColor=inherit;fillColor=none;align=center;whiteSpace=wrap;html=1;fontStyle=4" parent="8DQjG6_9rKmDQqKz9Qs8-231" vertex="1">
          <mxGeometry x="80" width="80" height="47" as="geometry">
            <mxRectangle width="80" height="47" as="alternateBounds" />
          </mxGeometry>
        </mxCell>
        <mxCell id="8DQjG6_9rKmDQqKz9Qs8-246" value="ContractBenefit" style="text;html=1;align=center;verticalAlign=middle;resizable=0;points=[];autosize=1;strokeColor=none;fillColor=none;fontSize=12;fontFamily=Helvetica;fontColor=default;" parent="1" vertex="1">
          <mxGeometry x="160" y="850" width="110" height="30" as="geometry" />
        </mxCell>
        <mxCell id="8DQjG6_9rKmDQqKz9Qs8-263" value="" style="childLayout=tableLayout;recursiveResize=0;shadow=0;fillColor=none;strokeColor=default;align=center;verticalAlign=middle;fontFamily=Helvetica;fontSize=12;fontColor=default;" parent="1" vertex="1">
          <mxGeometry x="160" y="960" width="568" height="47" as="geometry" />
        </mxCell>
        <mxCell id="8DQjG6_9rKmDQqKz9Qs8-264" value="" style="shape=tableRow;horizontal=0;startSize=0;swimlaneHead=0;swimlaneBody=0;top=0;left=0;bottom=0;right=0;dropTarget=0;collapsible=0;recursiveResize=0;expand=0;fontStyle=0;fillColor=none;strokeColor=inherit;shadow=0;align=center;verticalAlign=middle;fontFamily=Helvetica;fontSize=12;fontColor=default;" parent="8DQjG6_9rKmDQqKz9Qs8-263" vertex="1">
          <mxGeometry width="568" height="47" as="geometry" />
        </mxCell>
        <mxCell id="8DQjG6_9rKmDQqKz9Qs8-265" value="&lt;u&gt;PremiumCode&lt;/u&gt;" style="connectable=0;recursiveResize=0;strokeColor=inherit;fillColor=none;align=center;whiteSpace=wrap;html=1;shadow=0;verticalAlign=middle;fontFamily=Helvetica;fontSize=12;fontColor=default;" parent="8DQjG6_9rKmDQqKz9Qs8-264" vertex="1">
          <mxGeometry width="142" height="47" as="geometry">
            <mxRectangle width="142" height="47" as="alternateBounds" />
          </mxGeometry>
        </mxCell>
        <mxCell id="8DQjG6_9rKmDQqKz9Qs8-266" value="Benefit_name" style="connectable=0;recursiveResize=0;strokeColor=inherit;fillColor=none;align=center;whiteSpace=wrap;html=1;shadow=0;verticalAlign=middle;fontFamily=Helvetica;fontSize=12;fontColor=default;" parent="8DQjG6_9rKmDQqKz9Qs8-264" vertex="1">
          <mxGeometry x="142" width="142" height="47" as="geometry">
            <mxRectangle width="142" height="47" as="alternateBounds" />
          </mxGeometry>
        </mxCell>
        <mxCell id="8DQjG6_9rKmDQqKz9Qs8-267" value="Associate_Commissions" style="connectable=0;recursiveResize=0;strokeColor=inherit;fillColor=none;align=center;whiteSpace=wrap;html=1;shadow=0;verticalAlign=middle;fontFamily=Helvetica;fontSize=12;fontColor=default;" parent="8DQjG6_9rKmDQqKz9Qs8-264" vertex="1">
          <mxGeometry x="284" width="142" height="47" as="geometry">
            <mxRectangle width="142" height="47" as="alternateBounds" />
          </mxGeometry>
        </mxCell>
        <mxCell id="8DQjG6_9rKmDQqKz9Qs8-276" value="Production_Credit" style="connectable=0;recursiveResize=0;strokeColor=inherit;fillColor=none;align=center;whiteSpace=wrap;html=1;shadow=0;verticalAlign=middle;fontFamily=Helvetica;fontSize=12;fontColor=default;" parent="8DQjG6_9rKmDQqKz9Qs8-264" vertex="1">
          <mxGeometry x="426" width="142" height="47" as="geometry">
            <mxRectangle width="142" height="47" as="alternateBounds" />
          </mxGeometry>
        </mxCell>
        <mxCell id="8DQjG6_9rKmDQqKz9Qs8-278" value="ContractPremium" style="text;html=1;align=center;verticalAlign=middle;resizable=0;points=[];autosize=1;strokeColor=none;fillColor=none;fontSize=12;fontFamily=Helvetica;fontColor=default;" parent="1" vertex="1">
          <mxGeometry x="160" y="930" width="120" height="30" as="geometry" />
        </mxCell>
        <mxCell id="8DQjG6_9rKmDQqKz9Qs8-279" value="" style="childLayout=tableLayout;recursiveResize=0;shadow=0;fillColor=none;strokeColor=default;align=center;verticalAlign=middle;fontFamily=Helvetica;fontSize=12;fontColor=default;" parent="1" vertex="1">
          <mxGeometry x="160" y="1040" width="481" height="47" as="geometry" />
        </mxCell>
        <mxCell id="8DQjG6_9rKmDQqKz9Qs8-280" value="" style="shape=tableRow;horizontal=0;startSize=0;swimlaneHead=0;swimlaneBody=0;top=0;left=0;bottom=0;right=0;dropTarget=0;collapsible=0;recursiveResize=0;expand=0;fontStyle=0;fillColor=none;strokeColor=inherit;shadow=0;align=center;verticalAlign=middle;fontFamily=Helvetica;fontSize=12;fontColor=default;" parent="8DQjG6_9rKmDQqKz9Qs8-279" vertex="1">
          <mxGeometry width="481" height="47" as="geometry" />
        </mxCell>
        <mxCell id="8DQjG6_9rKmDQqKz9Qs8-281" value="Associate_name" style="connectable=0;recursiveResize=0;strokeColor=inherit;fillColor=none;align=center;whiteSpace=wrap;html=1;shadow=0;verticalAlign=middle;fontFamily=Helvetica;fontSize=12;fontColor=default;" parent="8DQjG6_9rKmDQqKz9Qs8-280" vertex="1">
          <mxGeometry width="121" height="47" as="geometry">
            <mxRectangle width="121" height="47" as="alternateBounds" />
          </mxGeometry>
        </mxCell>
        <mxCell id="8DQjG6_9rKmDQqKz9Qs8-282" value="Associate_DOB" style="connectable=0;recursiveResize=0;strokeColor=inherit;fillColor=none;align=center;whiteSpace=wrap;html=1;shadow=0;verticalAlign=middle;fontFamily=Helvetica;fontSize=12;fontColor=default;" parent="8DQjG6_9rKmDQqKz9Qs8-280" vertex="1">
          <mxGeometry x="121" width="118" height="47" as="geometry">
            <mxRectangle width="118" height="47" as="alternateBounds" />
          </mxGeometry>
        </mxCell>
        <mxCell id="8DQjG6_9rKmDQqKz9Qs8-283" value="Associate_tenuredate" style="connectable=0;recursiveResize=0;strokeColor=inherit;fillColor=none;align=center;whiteSpace=wrap;html=1;shadow=0;verticalAlign=middle;fontFamily=Helvetica;fontSize=12;fontColor=default;" parent="8DQjG6_9rKmDQqKz9Qs8-280" vertex="1">
          <mxGeometry x="239" width="121" height="47" as="geometry">
            <mxRectangle width="121" height="47" as="alternateBounds" />
          </mxGeometry>
        </mxCell>
        <mxCell id="8DQjG6_9rKmDQqKz9Qs8-292" value="&lt;u&gt;Associate_SSN&lt;/u&gt;" style="connectable=0;recursiveResize=0;strokeColor=inherit;fillColor=none;align=center;whiteSpace=wrap;html=1;shadow=0;verticalAlign=middle;fontFamily=Helvetica;fontSize=12;fontColor=default;" parent="8DQjG6_9rKmDQqKz9Qs8-280" vertex="1">
          <mxGeometry x="360" width="121" height="47" as="geometry">
            <mxRectangle width="121" height="47" as="alternateBounds" />
          </mxGeometry>
        </mxCell>
        <mxCell id="8DQjG6_9rKmDQqKz9Qs8-296" value="Associate" style="text;html=1;align=center;verticalAlign=middle;resizable=0;points=[];autosize=1;strokeColor=none;fillColor=none;fontSize=12;fontFamily=Helvetica;fontColor=default;" parent="1" vertex="1">
          <mxGeometry x="160" y="1010" width="80" height="30" as="geometry" />
        </mxCell>
        <mxCell id="8DQjG6_9rKmDQqKz9Qs8-297" value="" style="childLayout=tableLayout;recursiveResize=0;shadow=0;fillColor=none;strokeColor=default;align=center;verticalAlign=middle;fontFamily=Helvetica;fontSize=12;fontColor=default;" parent="1" vertex="1">
          <mxGeometry x="160" y="1121" width="392" height="47" as="geometry" />
        </mxCell>
        <mxCell id="8DQjG6_9rKmDQqKz9Qs8-298" value="" style="shape=tableRow;horizontal=0;startSize=0;swimlaneHead=0;swimlaneBody=0;top=0;left=0;bottom=0;right=0;dropTarget=0;collapsible=0;recursiveResize=0;expand=0;fontStyle=0;fillColor=none;strokeColor=inherit;shadow=0;align=center;verticalAlign=middle;fontFamily=Helvetica;fontSize=12;fontColor=default;" parent="8DQjG6_9rKmDQqKz9Qs8-297" vertex="1">
          <mxGeometry width="392" height="47" as="geometry" />
        </mxCell>
        <mxCell id="8DQjG6_9rKmDQqKz9Qs8-299" value="&lt;u&gt;ProductID&lt;/u&gt;" style="connectable=0;recursiveResize=0;strokeColor=inherit;fillColor=none;align=center;whiteSpace=wrap;html=1;shadow=0;verticalAlign=middle;fontFamily=Helvetica;fontSize=12;fontColor=default;" parent="8DQjG6_9rKmDQqKz9Qs8-298" vertex="1">
          <mxGeometry width="98" height="47" as="geometry">
            <mxRectangle width="98" height="47" as="alternateBounds" />
          </mxGeometry>
        </mxCell>
        <mxCell id="8DQjG6_9rKmDQqKz9Qs8-300" value="Lineofbusiness" style="connectable=0;recursiveResize=0;strokeColor=inherit;fillColor=none;align=center;whiteSpace=wrap;html=1;shadow=0;verticalAlign=middle;fontFamily=Helvetica;fontSize=12;fontColor=default;" parent="8DQjG6_9rKmDQqKz9Qs8-298" vertex="1">
          <mxGeometry x="98" width="98" height="47" as="geometry">
            <mxRectangle width="98" height="47" as="alternateBounds" />
          </mxGeometry>
        </mxCell>
        <mxCell id="8DQjG6_9rKmDQqKz9Qs8-301" value="P_Description" style="connectable=0;recursiveResize=0;strokeColor=inherit;fillColor=none;align=center;whiteSpace=wrap;html=1;shadow=0;verticalAlign=middle;fontFamily=Helvetica;fontSize=12;fontColor=default;" parent="8DQjG6_9rKmDQqKz9Qs8-298" vertex="1">
          <mxGeometry x="196" width="98" height="47" as="geometry">
            <mxRectangle width="98" height="47" as="alternateBounds" />
          </mxGeometry>
        </mxCell>
        <mxCell id="8DQjG6_9rKmDQqKz9Qs8-310" value="P_seriesname" style="connectable=0;recursiveResize=0;strokeColor=inherit;fillColor=none;align=center;whiteSpace=wrap;html=1;shadow=0;verticalAlign=middle;fontFamily=Helvetica;fontSize=12;fontColor=default;" parent="8DQjG6_9rKmDQqKz9Qs8-298" vertex="1">
          <mxGeometry x="294" width="98" height="47" as="geometry">
            <mxRectangle width="98" height="47" as="alternateBounds" />
          </mxGeometry>
        </mxCell>
        <mxCell id="8DQjG6_9rKmDQqKz9Qs8-312" value="Product" style="text;html=1;align=center;verticalAlign=middle;resizable=0;points=[];autosize=1;strokeColor=none;fillColor=none;fontSize=12;fontFamily=Helvetica;fontColor=default;" parent="1" vertex="1">
          <mxGeometry x="160" y="1091" width="60" height="30" as="geometry" />
        </mxCell>
        <mxCell id="8DQjG6_9rKmDQqKz9Qs8-313" value="" style="childLayout=tableLayout;recursiveResize=0;shadow=0;fillColor=none;strokeColor=default;align=center;verticalAlign=middle;fontFamily=Helvetica;fontSize=12;fontColor=default;" parent="1" vertex="1">
          <mxGeometry x="160" y="1198" width="282" height="47" as="geometry" />
        </mxCell>
        <mxCell id="8DQjG6_9rKmDQqKz9Qs8-314" value="" style="shape=tableRow;horizontal=0;startSize=0;swimlaneHead=0;swimlaneBody=0;top=0;left=0;bottom=0;right=0;dropTarget=0;collapsible=0;recursiveResize=0;expand=0;fontStyle=0;fillColor=none;strokeColor=inherit;shadow=0;align=center;verticalAlign=middle;fontFamily=Helvetica;fontSize=12;fontColor=default;" parent="8DQjG6_9rKmDQqKz9Qs8-313" vertex="1">
          <mxGeometry width="282" height="47" as="geometry" />
        </mxCell>
        <mxCell id="8DQjG6_9rKmDQqKz9Qs8-315" value="ProductID" style="connectable=0;recursiveResize=0;strokeColor=inherit;fillColor=none;align=center;whiteSpace=wrap;html=1;shadow=0;verticalAlign=middle;fontFamily=Helvetica;fontSize=12;fontColor=default;" parent="8DQjG6_9rKmDQqKz9Qs8-314" vertex="1">
          <mxGeometry width="94" height="47" as="geometry">
            <mxRectangle width="94" height="47" as="alternateBounds" />
          </mxGeometry>
        </mxCell>
        <mxCell id="8DQjG6_9rKmDQqKz9Qs8-316" value="Associate_SSN" style="connectable=0;recursiveResize=0;strokeColor=inherit;fillColor=none;align=center;whiteSpace=wrap;html=1;shadow=0;verticalAlign=middle;fontFamily=Helvetica;fontSize=12;fontColor=default;" parent="8DQjG6_9rKmDQqKz9Qs8-314" vertex="1">
          <mxGeometry x="94" width="94" height="47" as="geometry">
            <mxRectangle width="94" height="47" as="alternateBounds" />
          </mxGeometry>
        </mxCell>
        <mxCell id="8DQjG6_9rKmDQqKz9Qs8-329" value="Sold_time" style="connectable=0;recursiveResize=0;strokeColor=inherit;fillColor=none;align=center;whiteSpace=wrap;html=1;shadow=0;verticalAlign=middle;fontFamily=Helvetica;fontSize=12;fontColor=default;" parent="8DQjG6_9rKmDQqKz9Qs8-314" vertex="1">
          <mxGeometry x="188" width="94" height="47" as="geometry">
            <mxRectangle width="94" height="47" as="alternateBounds" />
          </mxGeometry>
        </mxCell>
        <mxCell id="8DQjG6_9rKmDQqKz9Qs8-328" value="Sell" style="text;html=1;align=center;verticalAlign=middle;resizable=0;points=[];autosize=1;strokeColor=none;fillColor=none;fontSize=12;fontFamily=Helvetica;fontColor=default;" parent="1" vertex="1">
          <mxGeometry x="160" y="1168" width="40" height="30" as="geometry" />
        </mxCell>
        <mxCell id="8DQjG6_9rKmDQqKz9Qs8-334" value="" style="endArrow=classic;html=1;rounded=0;fontFamily=Helvetica;fontSize=12;fontColor=default;startArrow=none;startFill=0;endFill=1;exitX=0.952;exitY=1.03;exitDx=0;exitDy=0;exitPerimeter=0;" parent="1" source="8DQjG6_9rKmDQqKz9Qs8-3" edge="1">
          <mxGeometry width="50" height="50" relative="1" as="geometry">
            <mxPoint x="740" y="130" as="sourcePoint" />
            <mxPoint x="240" y="160" as="targetPoint" />
            <Array as="points">
              <mxPoint x="740" y="140" />
              <mxPoint x="240" y="140" />
            </Array>
          </mxGeometry>
        </mxCell>
        <mxCell id="8DQjG6_9rKmDQqKz9Qs8-335" style="edgeStyle=orthogonalEdgeStyle;rounded=0;orthogonalLoop=1;jettySize=auto;html=1;exitX=0;exitY=0.5;exitDx=0;exitDy=0;entryX=0;entryY=0.5;entryDx=0;entryDy=0;fontFamily=Helvetica;fontSize=12;fontColor=default;" parent="1" source="8DQjG6_9rKmDQqKz9Qs8-76" target="8DQjG6_9rKmDQqKz9Qs8-57" edge="1">
          <mxGeometry relative="1" as="geometry" />
        </mxCell>
        <mxCell id="8DQjG6_9rKmDQqKz9Qs8-336" style="edgeStyle=orthogonalEdgeStyle;rounded=0;orthogonalLoop=1;jettySize=auto;html=1;exitX=0.5;exitY=0;exitDx=0;exitDy=0;entryX=0.515;entryY=1.091;entryDx=0;entryDy=0;entryPerimeter=0;fontFamily=Helvetica;fontSize=12;fontColor=default;" parent="1" source="8DQjG6_9rKmDQqKz9Qs8-76" target="8DQjG6_9rKmDQqKz9Qs8-3" edge="1">
          <mxGeometry relative="1" as="geometry">
            <Array as="points">
              <mxPoint x="330" y="230" />
              <mxPoint x="740" y="230" />
              <mxPoint x="740" y="150" />
              <mxPoint x="474" y="150" />
            </Array>
          </mxGeometry>
        </mxCell>
        <mxCell id="8DQjG6_9rKmDQqKz9Qs8-337" style="edgeStyle=orthogonalEdgeStyle;rounded=0;orthogonalLoop=1;jettySize=auto;html=1;entryX=0.514;entryY=0.994;entryDx=0;entryDy=0;entryPerimeter=0;fontFamily=Helvetica;fontSize=12;fontColor=default;" parent="1" target="8DQjG6_9rKmDQqKz9Qs8-3" edge="1">
          <mxGeometry relative="1" as="geometry">
            <mxPoint x="463" y="321" as="sourcePoint" />
            <Array as="points">
              <mxPoint x="463" y="321" />
              <mxPoint x="460" y="321" />
              <mxPoint x="460" y="300" />
              <mxPoint x="740" y="300" />
              <mxPoint x="740" y="150" />
              <mxPoint x="474" y="150" />
            </Array>
          </mxGeometry>
        </mxCell>
        <mxCell id="8DQjG6_9rKmDQqKz9Qs8-338" style="edgeStyle=orthogonalEdgeStyle;rounded=0;orthogonalLoop=1;jettySize=auto;html=1;exitX=0.166;exitY=-0.046;exitDx=0;exitDy=0;entryX=0.514;entryY=1.03;entryDx=0;entryDy=0;entryPerimeter=0;fontFamily=Helvetica;fontSize=12;fontColor=default;exitPerimeter=0;" parent="1" source="8DQjG6_9rKmDQqKz9Qs8-115" target="8DQjG6_9rKmDQqKz9Qs8-3" edge="1">
          <mxGeometry relative="1" as="geometry">
            <Array as="points">
              <mxPoint x="218" y="380" />
              <mxPoint x="740" y="380" />
              <mxPoint x="740" y="150" />
              <mxPoint x="474" y="150" />
            </Array>
          </mxGeometry>
        </mxCell>
        <mxCell id="8DQjG6_9rKmDQqKz9Qs8-339" style="edgeStyle=orthogonalEdgeStyle;rounded=0;orthogonalLoop=1;jettySize=auto;html=1;exitX=0.5;exitY=0;exitDx=0;exitDy=0;fontFamily=Helvetica;fontSize=12;fontColor=default;entryX=0.25;entryY=1;entryDx=0;entryDy=0;" parent="1" source="8DQjG6_9rKmDQqKz9Qs8-148" target="8DQjG6_9rKmDQqKz9Qs8-132" edge="1">
          <mxGeometry relative="1" as="geometry">
            <Array as="points">
              <mxPoint x="319" y="540" />
              <mxPoint x="215" y="540" />
            </Array>
          </mxGeometry>
        </mxCell>
        <mxCell id="8DQjG6_9rKmDQqKz9Qs8-340" style="edgeStyle=orthogonalEdgeStyle;rounded=0;orthogonalLoop=1;jettySize=auto;html=1;exitX=0;exitY=0.5;exitDx=0;exitDy=0;entryX=0;entryY=0.5;entryDx=0;entryDy=0;fontFamily=Helvetica;fontSize=12;fontColor=default;" parent="1" source="8DQjG6_9rKmDQqKz9Qs8-148" target="8DQjG6_9rKmDQqKz9Qs8-57" edge="1">
          <mxGeometry relative="1" as="geometry" />
        </mxCell>
        <mxCell id="8DQjG6_9rKmDQqKz9Qs8-341" style="edgeStyle=orthogonalEdgeStyle;rounded=0;orthogonalLoop=1;jettySize=auto;html=1;exitX=0;exitY=0.5;exitDx=0;exitDy=0;entryX=0;entryY=0.5;entryDx=0;entryDy=0;fontFamily=Helvetica;fontSize=12;fontColor=default;" parent="1" source="8DQjG6_9rKmDQqKz9Qs8-181" target="8DQjG6_9rKmDQqKz9Qs8-164" edge="1">
          <mxGeometry relative="1" as="geometry" />
        </mxCell>
        <mxCell id="8DQjG6_9rKmDQqKz9Qs8-342" style="edgeStyle=orthogonalEdgeStyle;rounded=0;orthogonalLoop=1;jettySize=auto;html=1;exitX=0.5;exitY=0;exitDx=0;exitDy=0;entryX=0;entryY=0.5;entryDx=0;entryDy=0;fontFamily=Helvetica;fontSize=12;fontColor=default;" parent="1" source="8DQjG6_9rKmDQqKz9Qs8-181" target="8DQjG6_9rKmDQqKz9Qs8-57" edge="1">
          <mxGeometry relative="1" as="geometry">
            <Array as="points">
              <mxPoint x="300" y="700" />
              <mxPoint x="130" y="700" />
              <mxPoint x="130" y="185" />
            </Array>
          </mxGeometry>
        </mxCell>
        <mxCell id="8DQjG6_9rKmDQqKz9Qs8-343" style="edgeStyle=orthogonalEdgeStyle;rounded=0;orthogonalLoop=1;jettySize=auto;html=1;exitX=0.75;exitY=0;exitDx=0;exitDy=0;entryX=0;entryY=0.5;entryDx=0;entryDy=0;fontFamily=Helvetica;fontSize=12;fontColor=default;" parent="1" source="8DQjG6_9rKmDQqKz9Qs8-198" target="8DQjG6_9rKmDQqKz9Qs8-57" edge="1">
          <mxGeometry relative="1" as="geometry">
            <Array as="points">
              <mxPoint x="603" y="780" />
              <mxPoint x="130" y="780" />
              <mxPoint x="130" y="185" />
            </Array>
          </mxGeometry>
        </mxCell>
        <mxCell id="8DQjG6_9rKmDQqKz9Qs8-344" style="edgeStyle=orthogonalEdgeStyle;rounded=0;orthogonalLoop=1;jettySize=auto;html=1;fontFamily=Helvetica;fontSize=12;fontColor=default;exitX=0.562;exitY=1.049;exitDx=0;exitDy=0;exitPerimeter=0;" parent="1" source="8DQjG6_9rKmDQqKz9Qs8-198" edge="1">
          <mxGeometry relative="1" as="geometry">
            <mxPoint x="480" y="870" as="sourcePoint" />
            <Array as="points">
              <mxPoint x="492" y="860" />
              <mxPoint x="140" y="860" />
              <mxPoint x="140" y="1100" />
              <mxPoint x="567" y="1100" />
            </Array>
            <mxPoint x="567" y="1090" as="targetPoint" />
          </mxGeometry>
        </mxCell>
        <mxCell id="8DQjG6_9rKmDQqKz9Qs8-345" style="edgeStyle=orthogonalEdgeStyle;rounded=0;orthogonalLoop=1;jettySize=auto;html=1;exitX=1;exitY=0.75;exitDx=0;exitDy=0;fontFamily=Helvetica;fontSize=12;fontColor=default;" parent="1" source="8DQjG6_9rKmDQqKz9Qs8-198" edge="1">
          <mxGeometry relative="1" as="geometry">
            <mxPoint x="238" y="1120" as="targetPoint" />
            <Array as="points">
              <mxPoint x="760" y="835" />
              <mxPoint x="760" y="1110" />
              <mxPoint x="238" y="1110" />
            </Array>
          </mxGeometry>
        </mxCell>
        <mxCell id="8DQjG6_9rKmDQqKz9Qs8-349" style="edgeStyle=orthogonalEdgeStyle;rounded=0;orthogonalLoop=1;jettySize=auto;html=1;exitX=0;exitY=0.5;exitDx=0;exitDy=0;entryX=0;entryY=0.5;entryDx=0;entryDy=0;fontFamily=Helvetica;fontSize=12;fontColor=default;" parent="1" source="8DQjG6_9rKmDQqKz9Qs8-231" target="8DQjG6_9rKmDQqKz9Qs8-198" edge="1">
          <mxGeometry relative="1" as="geometry">
            <Array as="points">
              <mxPoint x="130" y="904" />
              <mxPoint x="130" y="824" />
            </Array>
          </mxGeometry>
        </mxCell>
        <mxCell id="8DQjG6_9rKmDQqKz9Qs8-353" style="edgeStyle=orthogonalEdgeStyle;rounded=0;orthogonalLoop=1;jettySize=auto;html=1;exitX=0.25;exitY=0;exitDx=0;exitDy=0;entryX=0.184;entryY=1.024;entryDx=0;entryDy=0;entryPerimeter=0;fontFamily=Helvetica;fontSize=12;fontColor=default;" parent="1" source="8DQjG6_9rKmDQqKz9Qs8-314" target="8DQjG6_9rKmDQqKz9Qs8-298" edge="1">
          <mxGeometry relative="1" as="geometry" />
        </mxCell>
        <mxCell id="8DQjG6_9rKmDQqKz9Qs8-354" style="edgeStyle=orthogonalEdgeStyle;rounded=0;orthogonalLoop=1;jettySize=auto;html=1;entryX=0.91;entryY=1.012;entryDx=0;entryDy=0;entryPerimeter=0;fontFamily=Helvetica;fontSize=12;fontColor=default;exitX=0.5;exitY=1;exitDx=0;exitDy=0;" parent="1" source="8DQjG6_9rKmDQqKz9Qs8-314" target="8DQjG6_9rKmDQqKz9Qs8-280" edge="1">
          <mxGeometry relative="1" as="geometry">
            <Array as="points">
              <mxPoint x="301" y="1260" />
              <mxPoint x="598" y="1260" />
            </Array>
            <mxPoint x="301" y="1250" as="sourcePoint" />
          </mxGeometry>
        </mxCell>
        <mxCell id="xyCrsc5T3m02FwpNtGPv-1" style="edgeStyle=orthogonalEdgeStyle;rounded=0;orthogonalLoop=1;jettySize=auto;html=1;exitX=0.25;exitY=0;exitDx=0;exitDy=0;entryX=0.908;entryY=1.009;entryDx=0;entryDy=0;entryPerimeter=0;" edge="1" parent="1" source="8DQjG6_9rKmDQqKz9Qs8-264" target="8DQjG6_9rKmDQqKz9Qs8-231">
          <mxGeometry relative="1" as="geometry" />
        </mxCell>
      </root>
    </mxGraphModel>
  </diagram>
</mxfile>
